<svg version="1.1" id="Calque_1" xmlns="http://www.w3.org/2000/svg" xmlns:xlink="http://www.w3.org/1999/xlink" x="0px" y="0px"
	 viewBox="0 0 441.6 110" enable-background="new 0 0 441.6 110" xml:space="preserve">
<path fill="#8B919A" stroke="#8B919A" stroke-miterlimit="10" d="M91.9,21.4h-1.2c-9.6,0-17.3,7.8-17.3,17.3v9.8h5.4V38.3
	c0-3.2,1.3-6.1,3.5-8.3c2.2-2.2,5.2-3.4,8.4-3.3h1.2c3.2-0.1,6.2,1.1,8.4,3.3c2.2,2.2,3.5,5.1,3.5,8.3v1.1c0,1.4,1.3,2.7,2.7,2.7
	s2.7-1.3,2.7-2.7v-0.7C109.1,29.2,101.4,21.4,91.9,21.4"/>
<path fill="#6CDEFF" stroke="#8B919A" stroke-width="0.5" stroke-miterlimit="10" d="M69.1,76.3c-2.7,0-5,2.2-5,5c0,2.7,2.2,5,5,5
	h42.9c2.7,0,5-2.2,5-5c0-2.7-2.2-5-5-5H69.1"/>
<g>
	<path fill="#FFFFFF" d="M110.3,78.8c1.4,0,2.5,1.1,2.5,2.5c0,1.4-1.1,2.5-2.5,2.5c-1.4,0-2.5-1.1-2.5-2.5
		C107.9,79.9,109,78.8,110.3,78.8"/>
	<path fill="#FFFFFF" d="M103.2,78.8c1.4,0,2.5,1.1,2.5,2.5c0,1.4-1.1,2.5-2.5,2.5c-1.4,0-2.5-1.1-2.5-2.5
		C100.7,79.9,101.8,78.8,103.2,78.8"/>
	<path fill="#FFFFFF" d="M96,78.8c1.4,0,2.5,1.1,2.5,2.5c0,1.4-1.1,2.5-2.5,2.5c-1.4,0-2.5-1.1-2.5-2.5C93.5,79.9,94.6,78.8,96,78.8
		"/>
</g>
<path fill="#6CDEFF" stroke="#8B919A" stroke-width="0.5" stroke-miterlimit="10" d="M69.1,62.4c-2.7,0-5,2.2-5,5c0,2.7,2.2,5,5,5
	h42.9c2.7,0,5-2.2,5-5c0-2.7-2.2-5-5-5H69.1"/>
<g>
	<path fill="#FFFFFF" d="M110.3,64.9c1.4,0,2.5,1.1,2.5,2.5c0,1.4-1.1,2.5-2.5,2.5c-1.4,0-2.5-1.1-2.5-2.5
		C107.9,66,109,64.9,110.3,64.9"/>
	<path fill="#FFFFFF" d="M103.2,64.9c1.4,0,2.5,1.1,2.5,2.5c0,1.4-1.1,2.5-2.5,2.5c-1.4,0-2.5-1.1-2.5-2.5
		C100.7,66,101.8,64.9,103.2,64.9"/>
	<path fill="#FFFFFF" d="M96,64.9c1.4,0,2.5,1.1,2.5,2.5c0,1.4-1.1,2.5-2.5,2.5c-1.4,0-2.5-1.1-2.5-2.5C93.5,66,94.6,64.9,96,64.9"
		/>
</g>
<path fill="#6CDEFF" stroke="#8B919A" stroke-width="0.5" stroke-miterlimit="10" d="M111.9,58.4c2.7,0,5-2.2,5-5c0-2.7-2.2-5-5-5
	H69.1c-2.7,0-5,2.2-5,5c0,2.7,2.2,5,5,5H111.9"/>
<g>
	<path fill="#FFFFFF" d="M110.3,50.7c1.4,0,2.5,1.1,2.5,2.5c0,1.4-1.1,2.5-2.5,2.5c-1.4,0-2.5-1.1-2.5-2.5
		C107.9,51.8,109,50.7,110.3,50.7"/>
	<path fill="#FFFFFF" d="M103.2,50.7c1.4,0,2.5,1.1,2.5,2.5c0,1.4-1.1,2.5-2.5,2.5c-1.4,0-2.5-1.1-2.5-2.5
		C100.7,51.8,101.8,50.7,103.2,50.7"/>
	<path fill="#FFFFFF" d="M96,50.7c1.4,0,2.5,1.1,2.5,2.5c0,1.4-1.1,2.5-2.5,2.5c-1.4,0-2.5-1.1-2.5-2.5C93.5,51.8,94.6,50.7,96,50.7
		"/>
</g>
<path fill="#6CDEFF" stroke="#8B919A" stroke-width="0.5" stroke-miterlimit="10" d="M431.1,98.1c-1.8,0-3.2-1.4-3.2-3.2
	s1.4-3.2,3.2-3.2c1.8,0,3.1,1.4,3.1,3.2S432.9,98.1,431.1,98.1"/>
<path fill="#8B919A" d="M433.2,74.4L433.2,74.4c-0.1-0.3-0.1-0.6-0.3-0.8v-0.1c-0.1-0.2-0.3-0.4-0.5-0.6c-0.2-0.2-0.5-0.3-0.7-0.3
	h-0.1c-0.2,0-0.3-0.1-0.5-0.1h-0.3h-0.1c-0.3,0-0.5,0.1-0.7,0.3H430c-0.2,0.1-0.4,0.3-0.6,0.5l-7.3,9.9l-7.3-9.9
	c-0.2-0.2-0.4-0.4-0.6-0.5h-0.1c-0.2-0.1-0.5-0.2-0.7-0.3h-0.1h-0.3c-0.2,0-0.3,0-0.5,0.1h-0.1c-0.3,0.1-0.5,0.2-0.7,0.3
	c-0.2,0.2-0.4,0.4-0.5,0.6v0.1c-0.1,0.2-0.2,0.5-0.3,0.7v0.1v0.3v19.9c0,1.2,1,2.1,2.1,2.1c1.2,0,2.1-1,2.1-2.1V81.3l5.1,7
	c0.1,0.1,0.2,0.1,0.3,0.2c0.1,0.1,0.1,0.2,0.2,0.2h0.1c0.1,0.1,0.3,0.1,0.4,0.2c0.1,0,0.2,0.1,0.4,0.1h0.4h0.4
	c0.1,0,0.3-0.1,0.4-0.1c0.1-0.1,0.3-0.1,0.4-0.2h0.1c0.1-0.1,0.1-0.2,0.2-0.3c0.1-0.1,0.2-0.1,0.3-0.2l5.1-7v7.5
	c0,1.2,1,2.1,2.1,2.1s2.1-1,2.1-2.1v-14C433.3,74.6,433.2,74.5,433.2,74.4"/>
<path fill="#8B919A" d="M396.8,72.6c-6.7,0-12.1,5.4-12.1,12.1c0,6.7,5.4,12.1,12.1,12.1c6.7,0,12.1-5.4,12.1-12.1
	C408.9,78,403.5,72.6,396.8,72.6 M396.8,92.5c-4.3,0-7.8-3.5-7.8-7.8c0-4.3,3.5-7.8,7.8-7.8s7.8,3.5,7.8,7.8
	C404.6,89,401.1,92.5,396.8,92.5"/>
<path fill="#6CDEFF" stroke="#8B919A" stroke-width="0.5" stroke-miterlimit="10" d="M376.4,78.4c-1.8,0-3.1-1.4-3.1-3.2
	s1.4-3.2,3.1-3.2s3.2,1.4,3.2,3.2S378.1,78.4,376.4,78.4"/>
<path fill="#8B919A" d="M379.4,91.2c-1.4,0.9-3.2,1.4-5,1.2c-3.7-0.4-6.6-3.3-7-7c-0.3-3.1,1.2-5.9,3.6-7.4c0.9-0.6,1.2-1.6,0.9-2.6
	c-0.5-1.3-2-1.7-3.2-1.1c-3.6,2.3-5.9,6.5-5.6,11.2c0.5,6,5.4,10.8,11.4,11.1c2.6,0.1,5.1-0.6,7.1-1.8c1.2-0.8,1.4-2.5,0.3-3.5
	C381.3,90.9,380.2,90.8,379.4,91.2"/>
<path fill="#6CDEFF" stroke="#8B919A" stroke-width="0.5" stroke-miterlimit="10" d="M355.5,78.4h-11.7c-2.2,0-4,1.7-4,4
	c0,2.2,1.7,4,4,4h11.7c2.2,0,4-1.7,4-4C359.5,80.1,357.7,78.4,355.5,78.4"/>
<path fill="#6CDEFF" stroke="#8B919A" stroke-width="0.5" stroke-miterlimit="10" d="M333.3,41.9c-2.2,0-4,1.7-4,4v36.5
	c0,2.2,1.7,4,4,4c2.2,0,4-1.7,4-4V45.9C337.3,43.7,335.5,41.9,333.3,41.9"/>
<path fill="#6CDEFF" stroke="#8B919A" stroke-width="0.5" stroke-miterlimit="10" d="M261.9,49.8c2.2,0,4-1.7,4-4c0-2.2-1.7-4-4-4
	c-2.2,0-4,1.7-4,4C258,48.1,259.8,49.8,261.9,49.8"/>
<path fill="#6CDEFF" stroke="#8B919A" stroke-width="0.5" stroke-miterlimit="10" d="M276.1,41.9h-3.6c-2.2,0-4,1.7-4,4
	c0,2.2,1.7,4,4,4h3.6c2.8,0,5.1,2.4,5.1,5.2s-2.3,5.1-5.1,5.1h-14.2c-2.2,0-4,1.7-4,4v18.2c0,2.2,1.7,4,4,4c2.2,0,4-1.7,4-4V68.1
	h10.2c7.2,0,13-5.9,13-13C289.2,47.8,283.4,41.9,276.1,41.9"/>
<path fill="#6CDEFF" stroke="#8B919A" stroke-width="0.5" stroke-miterlimit="10" d="M298.1,41.9c-2.2,0-4,1.7-4,4v36.5
	c0,2.2,1.7,4,4,4c2.2,0,4-1.7,4-4V45.9C302.1,43.7,300.4,41.9,298.1,41.9"/>
<path fill="#6CDEFF" stroke="#8B919A" stroke-width="0.5" stroke-miterlimit="10" d="M320.4,41.9c-2.2,0-4,1.7-4,4v14.3h-7.7
	c-2.2,0-4,1.7-4,4c0,2.2,1.7,4,4,4h7.7v14.3c0,2.2,1.7,4,4,4c2.2,0,4-1.7,4-4V45.9C324.3,43.7,322.6,41.9,320.4,41.9"/>
<path fill="#6CDEFF" stroke="#8B919A" stroke-width="0.5" stroke-miterlimit="10" d="M177.2,42.1c-2.1-0.7-4.3,0.5-5,2.6
	c-0.7,2.1,0.5,4.3,2.6,5c2.1,0.7,4.3-0.5,5-2.6C180.4,45,179.3,42.8,177.2,42.1"/>
<path fill="#8B919A" d="M174,52.3c-2.1-0.7-4.3,0.5-5,2.6l-4.6,14.4l-7.8-24.6c0-0.1-0.1-0.2-0.1-0.3c-0.1-0.1-0.1-0.3-0.2-0.4
	c-0.1-0.1-0.1-0.2-0.2-0.3c-0.1-0.1-0.1-0.2-0.2-0.3c-0.1-0.1-0.2-0.2-0.3-0.3c-0.1-0.1-0.2-0.2-0.3-0.3c-0.1-0.1-0.2-0.2-0.3-0.2
	c-0.1-0.1-0.2-0.1-0.3-0.2c-0.1-0.1-0.3-0.1-0.4-0.2c-0.1,0-0.2-0.1-0.3-0.1c-0.2-0.1-0.3-0.1-0.5-0.1c-0.1,0-0.2,0-0.3-0.1h-0.4
	h-0.4c-0.1,0-0.2,0-0.3,0.1c-0.2,0-0.3,0.1-0.5,0.1c-0.1,0-0.2,0.1-0.3,0.1c-0.1,0.1-0.3,0.1-0.4,0.2c-0.1,0.1-0.2,0.1-0.3,0.2
	c-0.1,0.1-0.2,0.1-0.3,0.2l-0.3,0.3c-0.1,0.1-0.2,0.2-0.3,0.3c-0.1,0.1-0.2,0.2-0.2,0.3c-0.1,0.1-0.1,0.2-0.2,0.3s-0.1,0.3-0.2,0.4
	c0,0.1-0.1,0.2-0.1,0.3l-7.8,24.6l-7.8-24.6c-0.7-2.1-2.9-3.3-5-2.6c-2.1,0.7-3.2,2.9-2.6,5l11.7,36.5c0,0.1,0.1,0.2,0.1,0.3
	c0.1,0.1,0.1,0.3,0.2,0.4c0.1,0.1,0.1,0.2,0.2,0.3c0.1,0.1,0.1,0.2,0.2,0.3c0.1,0.1,0.2,0.2,0.3,0.3c0.1,0.1,0.2,0.2,0.3,0.3
	c0.1,0.1,0.2,0.2,0.3,0.2c0.1,0.1,0.2,0.1,0.3,0.2c0.1,0.1,0.3,0.1,0.4,0.2c0.1,0,0.2,0.1,0.3,0.1c0.2,0.1,0.3,0.1,0.5,0.1
	c0.1,0,0.2,0,0.3,0.1h0.4h0.4c0.1,0,0.2,0,0.3-0.1c0.2,0,0.3-0.1,0.5-0.1c0.1,0,0.2-0.1,0.3-0.1c0.1-0.1,0.3-0.1,0.4-0.2
	c0.1-0.1,0.2-0.1,0.3-0.2c0.1-0.1,0.2-0.1,0.3-0.2c0.1-0.1,0.2-0.2,0.3-0.3c0.1-0.1,0.2-0.2,0.3-0.3c0.1-0.1,0.2-0.2,0.2-0.3
	c0.1-0.1,0.1-0.2,0.2-0.3c0.1-0.1,0.1-0.3,0.2-0.4c0-0.1,0.1-0.2,0.1-0.3l7.8-24.6l7.8,24.6c0,0.1,0.1,0.2,0.1,0.3
	c0.1,0.1,0.1,0.3,0.2,0.4c0.1,0.1,0.1,0.2,0.2,0.3s0.1,0.2,0.2,0.3c0.1,0.1,0.2,0.2,0.3,0.3c0.1,0.1,0.2,0.2,0.3,0.3
	c0.1,0.1,0.2,0.2,0.3,0.2c0.1,0.1,0.2,0.1,0.3,0.2c0.1,0.1,0.3,0.1,0.4,0.2c0.1,0,0.2,0.1,0.3,0.1c0.2,0.1,0.3,0.1,0.5,0.1
	c0.1,0,0.2,0,0.3,0.1h0.4h0.4c0.1,0,0.2,0,0.3-0.1c0.2,0,0.3-0.1,0.5-0.1c0.1,0,0.2-0.1,0.3-0.1c0.1-0.1,0.3-0.1,0.4-0.2
	c0.1-0.1,0.2-0.1,0.3-0.2s0.2-0.1,0.3-0.2c0.1-0.1,0.2-0.2,0.3-0.3c0.1-0.1,0.2-0.2,0.3-0.3c0.1-0.1,0.2-0.2,0.2-0.3
	c0.1-0.1,0.2-0.2,0.2-0.3c0.1-0.1,0.1-0.3,0.2-0.4c0-0.1,0.1-0.2,0.1-0.3l8.4-26.3C177.2,55.2,176,53,174,52.3"/>
<g>
	<path fill="#8B919A" d="M199.6,60.1c-2.2,0-4,1.7-4,4c0,2.2,1.7,4,4,4h6.4c2.2,0,4-1.7,4-4c0-2.2-1.7-4-4-4H199.6z"/>
	<path fill="#8B919A" d="M215.2,45.9c0-2.2-1.7-4-4-4H189c-2.2,0-4,1.7-4,4v36.5c0,2.2,1.7,4,4,4h22.2c2.2,0,4-1.7,4-4s-1.7-4-4-4
		H193V49.8h18.2C213.5,49.8,215.2,48.1,215.2,45.9"/>
</g>
<path fill="#8B919A" d="M248,63.7c2.1-2.3,3.4-5.4,3.4-8.8c0-7.2-5.9-13-13-13h-3.6c-2.2,0-4,1.7-4,4c0,2.2,1.7,4,4,4h3.6
	c2.8,0,5.1,2.4,5.1,5.2c0,2.8-2.3,5.1-5.1,5.1h-14.2c-2.2,0-4,1.7-4,4v18.3c0,2.2,1.7,4,4,4h14.9c7.2,0,13-5.9,13-13
	C252.2,69.5,250.5,66.1,248,63.7 M228.2,78.4V68.1h10.9v0.1c2.8,0,5.1,2.3,5.1,5.1c0,2.8-2.2,5-4.9,5.1H228.2z"/>
<path fill="#6CDEFF" stroke="#8B919A" stroke-width="0.5" stroke-miterlimit="10" d="M225.4,42.1c-2.1-0.7-4.3,0.5-5,2.6
	c-0.7,2.1,0.5,4.3,2.6,5c2.1,0.7,4.3-0.5,5-2.6C228.7,45,227.6,42.8,225.4,42.1"/>
<path fill="none" d="M362.5,89.9v7.9H144.6v-7.9H362.5z"/>
<g>
	<circle id="svg-ico_1_" fill="#6CDEFF" stroke="#8B919A" stroke-width="0.5" stroke-miterlimit="10" cx="148.7" cy="93.9" r="4"/>
	
		<animateMotion  accumulate="none" additive="replace" begin="0s" calcMode="paced" dur="6s" fill="remove" path="M210,0 0 0 210,0" repeatCount="indefinite" restart="always">
		</animateMotion>
</g>
<path fill="#6CDEFF" stroke="#8B919A" stroke-width="0.5" stroke-miterlimit="10" d="M141.6,93.1c-1.1-1-2.6-1.1-3.9-0.5
	c-4,2-8.5,3.1-13.4,3.1h-81C28.3,95.7,16,84.6,16,71c0-8.9,5.4-17.2,14.1-21.6l2.1-1.1L32,46c0-0.4-0.1-0.9-0.1-1.2
	c0-8.6,7.8-15.6,17.5-15.6c2.8,0,5.5,0.6,8,1.8l2.8,1.3l1.6-2.6c5.9-9.4,16.9-15.2,28.8-15.2c14.4,0,26.9,8.5,31.3,20.3
	c0.7,1.9,2.8,2.8,4.6,2l0.1,0c1.7-0.8,2.5-2.7,1.8-4.4C123,17.7,108,7.4,90.6,7.4c-13.3,0-25.7,6.1-33.1,16.1
	c-2.6-0.9-5.3-1.3-8.2-1.3c-13.3,0-24.2,9.9-24.5,22.1C15,50.1,9,60.1,9,71c0,17.5,15.4,31.7,34.4,31.7h81c6,0,11.6-1.4,16.5-3.8
	C143.1,97.8,143.5,94.8,141.6,93.1L141.6,93.1z"/>
</svg>
